<mxfile host="app.diagrams.net" modified="2021-01-17T06:57:39.796Z" agent="5.0 (Windows)" etag="355MiQ9VaJKXZRWaiW8W" version="14.2.4" type="github">
  <diagram id="5lE4YzzaCET9P6omjGqx" name="Page-1">
    <mxGraphModel dx="1038" dy="1744" grid="1" gridSize="10" guides="1" tooltips="1" connect="1" arrows="1" fold="1" page="1" pageScale="1" pageWidth="827" pageHeight="1169" math="0" shadow="0">
      <root>
        <mxCell id="0" />
        <mxCell id="1" parent="0" />
        <mxCell id="0VSutXyREt0PPtVvjIto-7" value="" style="edgeStyle=orthogonalEdgeStyle;rounded=0;orthogonalLoop=1;jettySize=auto;html=1;" edge="1" parent="1" source="0VSutXyREt0PPtVvjIto-2" target="0VSutXyREt0PPtVvjIto-5">
          <mxGeometry relative="1" as="geometry" />
        </mxCell>
        <mxCell id="0VSutXyREt0PPtVvjIto-2" value="&lt;font style=&quot;font-size: 20px&quot;&gt;X&lt;/font&gt;" style="rounded=0;whiteSpace=wrap;html=1;" vertex="1" parent="1">
          <mxGeometry x="150" y="30" width="40" height="290" as="geometry" />
        </mxCell>
        <mxCell id="0VSutXyREt0PPtVvjIto-3" value="&lt;font style=&quot;font-size: 20px&quot;&gt;X&#39;&lt;/font&gt;" style="rounded=0;whiteSpace=wrap;html=1;" vertex="1" parent="1">
          <mxGeometry x="630" y="30" width="40" height="290" as="geometry" />
        </mxCell>
        <mxCell id="0VSutXyREt0PPtVvjIto-10" value="" style="edgeStyle=orthogonalEdgeStyle;rounded=0;orthogonalLoop=1;jettySize=auto;html=1;" edge="1" parent="1" source="0VSutXyREt0PPtVvjIto-4" target="0VSutXyREt0PPtVvjIto-3">
          <mxGeometry relative="1" as="geometry" />
        </mxCell>
        <mxCell id="0VSutXyREt0PPtVvjIto-4" value="" style="shape=trapezoid;perimeter=trapezoidPerimeter;whiteSpace=wrap;html=1;fixedSize=1;rotation=-90;" vertex="1" parent="1">
          <mxGeometry x="473.13" y="138.13" width="140" height="73.75" as="geometry" />
        </mxCell>
        <mxCell id="0VSutXyREt0PPtVvjIto-8" value="" style="edgeStyle=orthogonalEdgeStyle;rounded=0;orthogonalLoop=1;jettySize=auto;html=1;" edge="1" parent="1" source="0VSutXyREt0PPtVvjIto-5" target="0VSutXyREt0PPtVvjIto-6">
          <mxGeometry relative="1" as="geometry" />
        </mxCell>
        <mxCell id="0VSutXyREt0PPtVvjIto-5" value="" style="shape=trapezoid;perimeter=trapezoidPerimeter;whiteSpace=wrap;html=1;fixedSize=1;rotation=90;" vertex="1" parent="1">
          <mxGeometry x="210" y="140" width="140" height="70" as="geometry" />
        </mxCell>
        <mxCell id="0VSutXyREt0PPtVvjIto-9" value="" style="edgeStyle=orthogonalEdgeStyle;rounded=0;orthogonalLoop=1;jettySize=auto;html=1;" edge="1" parent="1" source="0VSutXyREt0PPtVvjIto-6" target="0VSutXyREt0PPtVvjIto-4">
          <mxGeometry relative="1" as="geometry" />
        </mxCell>
        <mxCell id="0VSutXyREt0PPtVvjIto-6" value="&lt;b&gt;&lt;font style=&quot;font-size: 15px&quot;&gt;Latent code&lt;/font&gt;&lt;/b&gt;" style="rounded=0;whiteSpace=wrap;html=1;" vertex="1" parent="1">
          <mxGeometry x="369" y="139.13" width="90" height="70" as="geometry" />
        </mxCell>
        <mxCell id="0VSutXyREt0PPtVvjIto-11" value="&lt;b&gt;&lt;font style=&quot;font-size: 16px&quot;&gt;Encoder&lt;/font&gt;&lt;/b&gt;" style="text;html=1;strokeColor=none;fillColor=none;align=center;verticalAlign=middle;whiteSpace=wrap;rounded=0;" vertex="1" parent="1">
          <mxGeometry x="240.75" y="165.01" width="78.5" height="20" as="geometry" />
        </mxCell>
        <mxCell id="0VSutXyREt0PPtVvjIto-12" value="&lt;font style=&quot;font-size: 16px&quot;&gt;&lt;b&gt;&lt;font style=&quot;font-size: 16px&quot;&gt;De&lt;/font&gt;&lt;/b&gt;&lt;b&gt;&lt;font style=&quot;font-size: 16px&quot;&gt;coder&lt;/font&gt;&lt;/b&gt;&lt;/font&gt;" style="text;html=1;strokeColor=none;fillColor=none;align=center;verticalAlign=middle;whiteSpace=wrap;rounded=0;" vertex="1" parent="1">
          <mxGeometry x="503.88" y="164.13" width="78.5" height="20" as="geometry" />
        </mxCell>
        <mxCell id="0VSutXyREt0PPtVvjIto-13" value="Input" style="rounded=0;whiteSpace=wrap;html=1;" vertex="1" parent="1">
          <mxGeometry x="120.38" y="-20" width="99.25" height="40" as="geometry" />
        </mxCell>
        <mxCell id="0VSutXyREt0PPtVvjIto-14" value="&lt;div&gt;Reconstructed&lt;/div&gt;&lt;div&gt;Input&lt;br&gt;&lt;/div&gt;" style="rounded=0;whiteSpace=wrap;html=1;" vertex="1" parent="1">
          <mxGeometry x="600.37" y="-20" width="99.25" height="40" as="geometry" />
        </mxCell>
        <mxCell id="0VSutXyREt0PPtVvjIto-16" value="" style="endArrow=classic;html=1;" edge="1" parent="1">
          <mxGeometry relative="1" as="geometry">
            <mxPoint x="220" as="sourcePoint" />
            <mxPoint x="600" as="targetPoint" />
          </mxGeometry>
        </mxCell>
        <mxCell id="0VSutXyREt0PPtVvjIto-17" value="&lt;b&gt;&lt;font style=&quot;font-size: 15px&quot;&gt;Identical&lt;/font&gt;&lt;/b&gt;" style="edgeLabel;resizable=0;html=1;align=center;verticalAlign=middle;" connectable="0" vertex="1" parent="0VSutXyREt0PPtVvjIto-16">
          <mxGeometry relative="1" as="geometry" />
        </mxCell>
        <mxCell id="0VSutXyREt0PPtVvjIto-18" value="&lt;b&gt;&lt;font style=&quot;font-size: 17px&quot;&gt;Latent Space&lt;/font&gt;&lt;/b&gt;" style="text;html=1;strokeColor=none;fillColor=none;align=center;verticalAlign=middle;whiteSpace=wrap;rounded=0;" vertex="1" parent="1">
          <mxGeometry x="360" y="90" width="110" height="20" as="geometry" />
        </mxCell>
      </root>
    </mxGraphModel>
  </diagram>
</mxfile>
